<?xml version="1.0" standalone="no"?>
<!DOCTYPE svg PUBLIC "-//W3C//DTD SVG 20010904//EN"
 "http://www.w3.org/TR/2001/REC-SVG-20010904/DTD/svg10.dtd">
<svg version="1.0" xmlns="http://www.w3.org/2000/svg"
 width="4134.000000pt" height="4134.000000pt" viewBox="0 0 4134.000000 4134.000000"
 preserveAspectRatio="xMidYMid meet">
<metadata>
Created by potrace 1.11, written by Peter Selinger 2001-2013
</metadata>
<g transform="translate(0.000000,4134.000000) scale(0.100000,-0.100000)"
fill="#000000" stroke="none">
<path d="M20119 38245 c-2 -2 -83 -6 -179 -10 -96 -4 -193 -8 -215 -10 -22 -1
-96 -5 -165 -9 -69 -4 -147 -9 -175 -11 -180 -14 -217 -17 -335 -30 -19 -2
-66 -7 -105 -10 -38 -3 -86 -8 -105 -10 -121 -14 -149 -17 -180 -20 -36 -3
-125 -13 -170 -20 -14 -2 -50 -6 -80 -10 -30 -4 -66 -8 -80 -10 -14 -2 -45 -6
-70 -10 -25 -3 -56 -8 -70 -10 -14 -3 -45 -7 -70 -10 -25 -3 -70 -10 -100 -15
-30 -5 -73 -12 -95 -15 -76 -12 -134 -21 -190 -31 -11 -2 -60 -11 -110 -19
-98 -17 -159 -29 -395 -75 -85 -17 -171 -35 -190 -40 -19 -5 -51 -12 -70 -15
-19 -3 -64 -13 -100 -21 -36 -9 -76 -18 -90 -20 -19 -4 -222 -53 -450 -109 -8
-2 -58 -15 -110 -29 -52 -14 -135 -37 -185 -50 -49 -14 -130 -36 -180 -51 -49
-15 -94 -28 -100 -29 -67 -15 -722 -226 -782 -252 -17 -8 -34 -14 -39 -14 -21
0 -612 -222 -849 -320 -136 -56 -137 -56 -165 -68 -14 -6 -97 -43 -185 -81
-144 -62 -264 -116 -499 -226 -165 -77 -693 -343 -811 -410 -22 -12 -69 -38
-105 -58 -97 -52 -405 -228 -483 -276 -37 -22 -70 -41 -73 -41 -2 0 -17 -8
-32 -19 -15 -10 -117 -74 -227 -141 -110 -68 -228 -143 -262 -167 -35 -24 -65
-43 -68 -43 -20 0 -749 -511 -945 -663 -9 -7 -63 -48 -120 -91 -112 -86 -437
-342 -458 -363 -7 -7 -34 -29 -60 -50 -26 -20 -65 -53 -87 -73 -23 -19 -55
-46 -72 -60 -28 -23 -70 -59 -207 -179 -52 -45 -188 -166 -235 -209 -14 -13
-69 -63 -121 -110 -316 -290 -791 -770 -1085 -1097 -38 -43 -75 -83 -80 -89
-11 -12 -122 -139 -216 -247 -31 -35 -69 -80 -85 -99 -16 -19 -31 -37 -34 -40
-4 -3 -37 -43 -75 -90 -38 -47 -72 -87 -75 -90 -18 -18 -302 -379 -431 -550
-137 -181 -383 -522 -479 -665 -250 -371 -480 -732 -631 -992 -79 -136 -224
-393 -259 -458 -23 -44 -50 -93 -60 -110 -53 -91 -325 -629 -398 -785 -16 -36
-47 -101 -67 -145 -70 -151 -97 -210 -160 -355 -151 -348 -278 -665 -382 -950
-65 -179 -145 -405 -147 -415 -1 -5 -7 -23 -13 -40 -17 -44 -146 -449 -192
-605 -83 -282 -245 -900 -275 -1050 -3 -14 -18 -86 -35 -160 -16 -74 -32 -146
-35 -160 -2 -14 -10 -50 -16 -80 -17 -80 -19 -91 -50 -255 -16 -82 -31 -167
-34 -187 -3 -21 -12 -75 -20 -120 -22 -126 -24 -136 -40 -238 -8 -52 -18 -120
-21 -150 -4 -30 -8 -57 -10 -60 -2 -3 -6 -34 -10 -69 -4 -34 -8 -72 -10 -83
-3 -11 -7 -46 -11 -77 -3 -31 -8 -65 -10 -76 -2 -11 -6 -47 -9 -82 -3 -34 -7
-70 -9 -80 -2 -10 -7 -47 -11 -83 -3 -36 -8 -81 -10 -100 -2 -19 -6 -64 -10
-100 -3 -36 -8 -81 -10 -100 -5 -37 -13 -134 -20 -240 -3 -36 -7 -92 -10 -125
-2 -33 -7 -107 -11 -165 -4 -58 -8 -123 -9 -145 -21 -318 -28 -1313 -12 -1655
14 -294 24 -474 32 -570 3 -30 7 -89 10 -130 6 -88 14 -181 20 -230 2 -19 7
-67 10 -106 3 -39 7 -80 9 -90 2 -10 7 -50 10 -89 4 -38 8 -81 10 -95 3 -14 7
-52 11 -85 3 -33 8 -73 10 -90 3 -16 7 -50 10 -75 3 -25 7 -56 10 -70 2 -14 6
-46 9 -71 3 -26 17 -121 31 -210 14 -90 27 -180 30 -199 3 -19 8 -48 11 -65 3
-16 7 -41 9 -55 2 -14 8 -47 14 -75 5 -27 12 -70 16 -95 3 -25 8 -53 11 -62 3
-9 13 -65 24 -125 20 -114 24 -132 40 -203 5 -25 12 -56 14 -70 9 -55 108
-485 146 -640 23 -91 43 -169 44 -175 5 -18 26 -99 36 -135 38 -139 93 -336
109 -390 41 -138 83 -276 91 -300 5 -14 36 -110 70 -215 33 -104 65 -198 70
-207 6 -10 10 -22 10 -28 0 -15 162 -459 237 -650 142 -363 304 -744 429
-1009 30 -62 54 -115 54 -117 0 -6 269 -544 330 -659 104 -198 243 -450 256
-466 8 -8 14 -19 14 -23 0 -14 321 -550 448 -748 20 -32 71 -110 112 -174 41
-65 80 -123 87 -130 7 -7 13 -15 13 -19 0 -3 23 -38 50 -78 28 -40 55 -79 60
-87 36 -56 355 -501 445 -620 186 -247 457 -587 613 -770 36 -41 74 -86 86
-100 23 -27 144 -168 161 -186 6 -6 42 -47 80 -90 320 -360 741 -790 1115
-1138 151 -142 194 -180 280 -256 46 -41 90 -79 96 -85 93 -83 467 -400 554
-468 20 -16 181 -145 200 -160 125 -101 562 -424 792 -586 186 -131 876 -581
892 -581 2 0 46 -27 98 -59 52 -33 112 -69 134 -81 42 -23 65 -36 104 -61 24
-15 47 -28 195 -109 33 -18 65 -36 70 -40 6 -4 40 -24 78 -44 37 -20 95 -51
130 -70 34 -18 97 -52 141 -76 98 -52 548 -278 636 -318 36 -16 106 -49 155
-72 193 -91 475 -213 675 -294 63 -26 124 -51 135 -56 48 -23 368 -145 565
-215 118 -42 224 -81 235 -85 84 -37 771 -250 1050 -326 161 -44 709 -182 749
-188 21 -4 42 -8 46 -11 3 -2 20 -6 36 -9 16 -3 72 -15 124 -26 91 -20 418
-86 470 -95 14 -2 48 -9 77 -14 29 -6 74 -13 100 -17 26 -3 51 -8 54 -10 4 -2
28 -6 55 -9 26 -4 50 -8 53 -10 3 -2 30 -6 60 -10 30 -4 63 -9 75 -11 12 -2
41 -7 66 -10 25 -3 52 -7 60 -9 8 -2 35 -7 60 -10 47 -6 114 -15 140 -20 8 -2
40 -6 71 -9 31 -4 65 -8 75 -10 11 -2 46 -7 79 -10 33 -4 71 -9 85 -11 14 -2
52 -6 85 -10 33 -3 71 -8 85 -10 14 -2 57 -6 95 -10 39 -4 84 -8 100 -10 17
-2 64 -6 105 -10 41 -3 91 -8 110 -10 19 -2 73 -7 120 -10 47 -3 105 -7 130
-10 25 -2 95 -7 155 -10 61 -4 133 -8 160 -10 360 -27 1600 -27 1910 0 28 2
102 7 165 10 63 3 131 8 150 10 19 2 78 7 130 10 52 4 111 8 130 10 45 5 140
14 210 20 30 3 70 7 90 9 19 3 62 8 95 11 91 10 213 24 255 30 14 2 50 7 80
10 30 3 66 8 80 10 14 2 45 7 70 10 25 3 56 8 70 10 14 2 45 7 70 10 45 6 75
11 128 20 51 8 227 37 247 40 44 6 215 37 310 55 55 11 112 22 128 24 15 3 35
7 45 10 9 3 33 7 52 10 19 3 78 15 130 27 52 11 106 23 120 25 143 27 766 181
970 241 47 14 94 27 105 30 63 16 446 133 600 183 484 158 1148 408 1510 570
658 294 1015 470 1510 743 851 470 1781 1095 2495 1677 166 135 360 297 425
354 38 33 83 73 100 87 26 22 218 194 251 224 281 257 359 332 603 576 242
241 393 399 611 639 567 624 1122 1338 1600 2059 86 130 165 251 176 268 10
18 62 101 115 185 262 418 532 901 780 1400 137 274 191 387 296 623 47 105
93 208 103 230 42 94 199 480 200 490 0 3 6 18 14 33 26 51 170 439 257 692
99 288 142 422 248 775 26 88 136 481 147 527 2 10 6 26 8 35 58 235 116 474
120 493 2 14 14 66 25 116 29 130 95 464 125 634 15 80 28 154 30 165 2 11 9
56 16 100 7 44 14 87 15 96 6 29 14 81 40 264 34 236 33 229 39 288 3 29 8 68
10 87 6 40 14 102 21 175 3 28 8 68 10 90 10 87 23 220 30 320 2 28 6 79 9
115 7 82 14 181 21 290 3 47 8 114 10 150 27 415 27 1574 0 1920 -2 25 -6 95
-10 155 -3 61 -8 130 -10 155 -2 25 -7 83 -10 130 -4 47 -8 99 -10 115 -2 17
-6 71 -10 120 -3 50 -8 97 -10 105 -2 8 -7 51 -11 95 -3 44 -8 88 -9 97 -2 9
-6 48 -10 85 -3 37 -8 79 -10 93 -3 14 -7 48 -11 75 -3 28 -7 61 -9 75 -2 14
-7 48 -10 75 -4 28 -8 61 -10 75 -2 14 -11 75 -20 135 -8 61 -20 135 -25 165
-6 30 -12 69 -14 85 -2 17 -9 62 -16 100 -6 39 -14 84 -17 100 -2 17 -16 91
-30 165 -13 74 -27 146 -29 160 -2 14 -7 36 -10 50 -3 14 -8 39 -11 55 -6 38
-81 388 -93 435 -5 19 -11 46 -14 60 -2 14 -14 66 -26 115 -12 50 -23 97 -25
105 -2 8 -20 78 -40 155 -19 77 -38 149 -40 160 -38 167 -327 1116 -375 1230
-4 11 -43 117 -85 235 -72 200 -257 677 -302 780 -11 25 -46 106 -78 180 -32
74 -68 158 -80 185 -65 141 -128 280 -170 370 -55 118 -269 547 -318 637 -19
35 -56 104 -82 153 -331 623 -756 1301 -1229 1960 -78 109 -379 505 -472 621
-34 44 -222 275 -242 299 -172 204 -243 287 -273 320 -20 22 -78 87 -129 145
-360 407 -874 925 -1294 1305 -160 144 -332 295 -486 425 -36 30 -67 57 -70
60 -4 4 -182 148 -230 187 -8 6 -35 28 -60 48 -70 56 -70 56 -160 125 -47 36
-87 68 -90 71 -8 10 -432 324 -465 345 -16 10 -32 21 -35 25 -14 17 -713 489
-724 489 -4 0 -28 15 -54 33 -61 41 -71 47 -162 103 -41 25 -115 70 -165 101
-150 92 -451 265 -625 360 -271 148 -324 175 -580 303 -265 133 -380 188 -585
280 -27 13 -77 35 -110 50 -33 15 -80 36 -105 48 -25 11 -117 50 -205 87 -88
37 -173 73 -190 80 -16 7 -73 29 -125 50 -52 20 -104 40 -115 45 -91 43 -675
251 -970 347 -250 81 -710 218 -835 248 -8 2 -121 31 -250 64 -190 49 -525
127 -625 147 -11 2 -31 6 -45 9 -14 3 -34 7 -45 9 -11 2 -99 20 -195 39 -170
35 -394 75 -455 83 -16 2 -39 6 -51 9 -12 2 -39 7 -60 10 -21 4 -77 12 -124
20 -47 8 -101 16 -120 19 -19 2 -71 10 -115 16 -44 6 -93 13 -110 15 -62 8
-131 17 -151 20 -11 2 -52 6 -90 10 -38 4 -77 9 -87 11 -10 2 -48 6 -85 9 -37
4 -78 8 -92 10 -14 2 -56 7 -95 10 -38 3 -86 8 -105 10 -19 2 -66 7 -105 10
-38 3 -92 8 -120 10 -27 3 -95 7 -150 11 -55 3 -120 8 -145 9 -25 2 -101 6
-170 10 -69 3 -161 8 -205 11 -88 7 -1281 15 -1286 9z m1281 -529 c52 -3 145
-8 205 -11 108 -5 189 -11 310 -20 33 -3 89 -7 125 -10 63 -5 138 -11 230 -20
25 -2 74 -7 110 -10 36 -4 82 -8 103 -11 20 -2 56 -6 80 -9 23 -2 65 -7 92
-10 28 -4 66 -8 85 -10 36 -4 246 -32 310 -40 19 -3 46 -7 60 -10 14 -2 43 -7
65 -10 86 -13 113 -17 200 -31 50 -8 104 -17 120 -20 90 -14 393 -70 545 -101
96 -19 186 -37 200 -39 14 -3 39 -9 55 -14 17 -5 44 -12 60 -15 139 -24 626
-149 1070 -275 284 -80 794 -250 1115 -370 91 -35 192 -73 225 -85 164 -61
625 -254 776 -323 35 -17 99 -46 142 -66 42 -20 114 -53 160 -73 160 -72 776
-386 920 -469 32 -19 60 -34 62 -34 8 0 417 -237 590 -343 259 -157 654 -414
855 -555 263 -185 514 -368 546 -397 6 -5 22 -17 34 -25 12 -8 41 -30 64 -48
22 -17 46 -36 51 -40 79 -60 141 -108 145 -112 3 -3 48 -39 100 -80 52 -41 97
-77 100 -80 3 -3 43 -37 90 -75 73 -60 344 -290 376 -320 6 -5 26 -23 45 -39
91 -79 242 -217 434 -396 109 -103 549 -542 665 -666 457 -484 856 -958 1254
-1489 70 -93 133 -178 141 -188 8 -9 15 -19 15 -22 0 -2 28 -42 63 -89 210
-288 647 -956 800 -1226 11 -19 28 -48 38 -65 11 -16 22 -37 26 -45 3 -8 14
-26 23 -40 9 -14 30 -50 47 -80 17 -30 64 -116 105 -190 41 -74 90 -162 108
-195 53 -97 331 -650 390 -775 139 -298 254 -562 366 -840 41 -102 79 -194 84
-205 35 -79 203 -546 295 -820 78 -235 233 -743 250 -819 2 -12 16 -64 31
-116 14 -52 30 -113 35 -135 19 -77 56 -225 70 -279 6 -22 12 -46 14 -55 2 -9
13 -59 25 -111 33 -144 50 -218 65 -295 8 -38 16 -79 19 -90 16 -74 36 -175
41 -205 5 -31 13 -74 30 -160 3 -14 8 -41 11 -60 2 -19 7 -46 10 -60 2 -14 7
-38 10 -55 2 -16 9 -55 14 -85 5 -30 12 -68 15 -85 2 -16 8 -50 11 -75 3 -25
8 -54 10 -65 2 -11 7 -38 9 -60 3 -22 7 -51 10 -65 2 -14 7 -45 10 -70 4 -25
8 -56 10 -70 2 -14 6 -50 10 -80 4 -30 8 -66 10 -80 7 -47 14 -105 25 -205 27
-244 29 -264 35 -335 2 -36 7 -85 9 -110 9 -78 18 -193 31 -390 6 -87 8 -121
22 -395 4 -88 7 -410 7 -715 0 -492 -4 -681 -19 -935 -11 -178 -17 -263 -20
-305 -2 -25 -7 -79 -10 -120 -3 -41 -7 -95 -10 -120 -2 -25 -7 -76 -11 -115
-3 -38 -8 -88 -10 -110 -2 -22 -6 -62 -9 -90 -9 -90 -16 -150 -20 -175 -2 -14
-7 -50 -10 -80 -3 -30 -8 -73 -12 -95 -3 -22 -7 -51 -8 -65 -2 -14 -8 -63 -15
-110 -17 -125 -21 -152 -26 -180 -2 -14 -6 -43 -9 -65 -8 -59 -85 -513 -95
-560 -5 -22 -12 -56 -15 -75 -5 -30 -58 -287 -71 -345 -2 -11 -7 -36 -11 -55
-4 -19 -8 -37 -8 -40 -5 -25 -23 -101 -57 -240 -22 -91 -42 -176 -44 -190 -3
-14 -14 -59 -25 -100 -12 -41 -36 -133 -55 -205 -92 -346 -317 -1077 -364
-1180 -5 -11 -24 -65 -43 -120 -84 -242 -257 -682 -390 -990 -65 -152 -77
-178 -142 -320 -20 -44 -53 -116 -73 -160 -40 -87 -336 -677 -397 -790 -60
-112 -96 -178 -115 -210 -10 -16 -29 -50 -42 -75 -40 -72 -155 -273 -178 -310
-5 -8 -55 -91 -110 -183 -314 -525 -721 -1114 -1128 -1637 -147 -188 -356
-447 -376 -465 -6 -5 -23 -26 -38 -45 -15 -19 -37 -47 -50 -61 -13 -14 -48
-55 -78 -90 -81 -93 -292 -331 -315 -355 -11 -12 -72 -77 -135 -145 -127 -136
-586 -598 -720 -724 -128 -120 -297 -275 -365 -335 -33 -29 -81 -71 -106 -94
-25 -22 -59 -52 -75 -66 -174 -148 -222 -189 -242 -206 -13 -10 -33 -27 -45
-38 -174 -151 -671 -531 -980 -751 -128 -91 -236 -169 -242 -173 -13 -10 -368
-244 -460 -304 -107 -68 -223 -142 -242 -153 -10 -6 -90 -53 -178 -106 -170
-102 -328 -194 -410 -239 -27 -15 -66 -36 -85 -47 -52 -29 -172 -95 -280 -153
-98 -52 -696 -349 -785 -390 -27 -12 -77 -35 -110 -50 -181 -83 -774 -335
-810 -344 -5 -2 -21 -8 -35 -13 -73 -30 -440 -166 -535 -199 -60 -20 -121 -41
-135 -47 -14 -6 -29 -11 -35 -12 -5 -2 -57 -18 -115 -38 -205 -68 -536 -172
-667 -208 -18 -5 -48 -13 -65 -18 -49 -14 -191 -52 -208 -56 -8 -2 -60 -16
-115 -30 -55 -15 -104 -28 -110 -29 -5 -1 -19 -5 -30 -9 -11 -3 -31 -8 -45
-11 -14 -3 -72 -17 -130 -31 -133 -33 -561 -126 -690 -151 -14 -2 -36 -6 -50
-9 -14 -3 -36 -7 -50 -10 -48 -10 -151 -29 -220 -40 -19 -3 -60 -10 -90 -15
-30 -5 -71 -12 -90 -15 -19 -3 -46 -7 -60 -10 -51 -10 -184 -29 -275 -41 -22
-3 -65 -9 -95 -14 -30 -5 -77 -12 -105 -15 -27 -3 -59 -7 -70 -9 -11 -2 -47
-7 -80 -10 -33 -4 -76 -9 -95 -11 -96 -12 -282 -32 -380 -40 -36 -3 -83 -8
-105 -10 -22 -2 -78 -7 -125 -10 -47 -3 -105 -8 -130 -10 -25 -2 -88 -7 -140
-10 -52 -3 -124 -8 -160 -10 -241 -15 -440 -19 -925 -19 -302 0 -620 3 -705 7
-257 12 -494 26 -560 32 -25 2 -81 7 -125 10 -44 3 -96 8 -115 10 -19 2 -69 7
-110 10 -41 3 -91 8 -110 10 -19 3 -62 7 -95 10 -33 3 -69 7 -80 9 -11 2 -51
7 -90 10 -38 4 -77 9 -85 11 -13 3 -87 12 -160 20 -28 3 -127 16 -150 20 -8 1
-40 6 -70 10 -30 4 -64 9 -75 11 -10 2 -37 6 -60 9 -38 6 -60 9 -122 19 -16 3
-59 10 -98 16 -38 6 -90 15 -115 20 -25 5 -61 12 -80 15 -40 6 -57 9 -200 36
-256 50 -487 99 -715 154 -82 20 -161 38 -175 41 -14 3 -34 8 -45 11 -11 4
-24 8 -30 9 -65 15 -389 101 -465 124 -60 18 -178 52 -190 55 -3 1 -39 12 -80
25 -41 13 -79 25 -85 26 -119 28 -1034 347 -1160 404 -11 5 -103 43 -205 84
-395 158 -700 296 -1155 522 -170 84 -346 173 -390 197 -44 24 -116 63 -160
86 -147 80 -328 183 -525 300 -107 64 -203 120 -212 126 -231 136 -751 481
-1058 703 -144 105 -450 332 -460 342 -3 3 -68 55 -145 115 -212 166 -600 491
-765 641 -25 22 -76 69 -115 104 -268 242 -768 734 -985 969 -58 63 -118 129
-135 146 -16 18 -61 67 -99 111 -39 43 -75 84 -80 89 -19 17 -128 144 -280
325 -81 96 -156 186 -168 200 -89 106 -433 553 -585 760 -209 287 -623 907
-738 1108 -6 9 -47 78 -91 152 -87 144 -228 388 -235 405 -2 6 -29 55 -60 110
-254 448 -556 1080 -824 1720 -110 261 -277 710 -385 1035 -54 162 -141 432
-145 451 -2 8 -11 40 -20 70 -52 172 -179 631 -188 680 -3 13 -16 69 -31 124
-24 96 -69 285 -87 370 -5 22 -10 49 -13 60 -7 31 -64 306 -71 340 -25 129
-64 343 -79 440 -3 17 -12 71 -20 120 -20 123 -24 149 -37 235 -5 41 -12 86
-14 100 -2 14 -9 63 -15 110 -16 129 -21 163 -25 190 -2 14 -7 54 -10 90 -4
36 -8 72 -10 80 -2 9 -6 49 -9 90 -4 41 -8 86 -10 100 -3 14 -7 63 -11 110 -4
47 -9 92 -10 102 -2 9 -6 63 -10 120 -4 56 -9 121 -11 143 -2 22 -6 85 -9 140
-3 55 -8 129 -10 165 -21 317 -28 1317 -11 1640 4 91 10 190 11 220 6 109 16
266 20 320 3 30 7 87 10 125 3 39 7 90 9 115 3 25 7 77 11 115 6 74 13 138 20
195 2 19 7 60 10 90 3 30 10 89 15 130 5 41 12 98 15 125 5 47 21 168 30 225
2 14 7 48 11 75 3 28 8 59 10 70 2 10 6 37 9 60 8 53 14 88 25 155 5 30 12 69
14 85 7 43 35 206 40 230 6 33 38 198 42 225 3 14 7 32 9 40 2 8 7 31 10 50 3
19 8 49 12 65 4 17 7 32 8 35 11 49 15 69 19 90 10 56 99 440 127 545 11 44
22 87 24 95 2 8 13 51 25 95 12 44 23 87 25 95 16 71 122 436 179 620 20 63
38 122 41 130 38 138 315 918 375 1058 20 45 30 70 98 237 59 144 134 319 200
465 9 19 16 37 17 40 1 3 22 50 48 104 26 54 47 101 47 103 0 11 309 628 393
783 129 241 166 308 188 344 10 17 22 38 26 46 4 8 19 35 33 60 15 25 66 113
115 195 48 83 98 166 110 185 13 19 69 109 125 200 392 629 931 1369 1385
1900 22 26 60 71 85 101 48 57 172 198 278 317 410 458 971 1011 1442 1422 47
41 90 79 96 84 13 13 37 33 119 101 33 28 71 60 85 72 226 197 1014 799 1148
878 9 6 19 12 22 15 16 16 470 320 588 393 46 29 94 59 107 67 62 39 565 340
600 359 22 12 58 32 80 45 192 110 488 266 765 402 151 75 282 139 291 144
108 56 842 378 879 386 3 0 16 5 30 11 14 6 57 23 95 38 39 15 91 35 116 45
310 126 864 314 1354 459 140 41 581 161 648 176 10 2 26 6 35 9 9 3 28 7 42
10 14 2 66 14 115 26 50 12 97 23 105 25 8 2 67 14 130 28 126 28 182 40 190
42 49 10 80 16 100 20 14 3 48 9 75 15 88 18 99 20 135 26 19 3 42 7 50 9 8 3
56 12 105 20 50 9 101 18 115 20 14 3 45 8 69 11 25 3 47 7 50 9 3 2 31 6 61
10 30 4 57 8 60 10 3 2 30 6 60 10 30 3 80 10 110 15 30 6 75 12 100 15 25 3
63 8 85 11 22 3 51 7 65 9 14 2 45 6 70 10 25 3 61 7 80 10 19 2 64 7 100 11
35 3 67 7 70 9 3 1 45 6 94 10 49 4 98 8 110 10 20 3 108 12 201 21 68 6 211
16 420 30 177 11 197 12 365 19 91 4 166 8 168 10 6 5 1171 -3 1272 -9z"/>
<path d="M20287 37044 c-1 -1 -90 -5 -197 -9 -228 -8 -285 -10 -440 -20 -118
-7 -150 -9 -280 -20 -41 -3 -102 -8 -135 -10 -33 -3 -76 -7 -95 -10 -19 -2
-64 -7 -100 -10 -36 -3 -81 -8 -100 -10 -19 -3 -62 -7 -95 -10 -33 -3 -69 -7
-80 -9 -11 -2 -49 -7 -85 -10 -36 -4 -76 -9 -90 -11 -14 -2 -45 -7 -70 -10
-25 -4 -56 -8 -70 -10 -14 -2 -61 -9 -106 -15 -44 -6 -89 -12 -100 -14 -10 -2
-41 -7 -69 -10 -27 -4 -57 -9 -65 -11 -8 -2 -33 -6 -55 -10 -22 -3 -65 -10
-95 -15 -102 -18 -125 -21 -175 -30 -27 -5 -111 -20 -185 -35 -74 -14 -148
-28 -165 -31 -16 -3 -67 -14 -113 -25 -46 -10 -98 -21 -115 -25 -18 -3 -52
-10 -77 -15 -25 -6 -54 -12 -65 -14 -11 -3 -67 -16 -125 -30 -58 -14 -114 -28
-124 -30 -10 -2 -55 -14 -100 -26 -45 -11 -88 -22 -96 -24 -8 -2 -51 -13 -95
-25 -44 -12 -98 -26 -120 -31 -290 -72 -1111 -338 -1460 -474 -277 -108 -402
-157 -429 -170 -17 -7 -86 -36 -152 -64 -67 -28 -146 -61 -175 -75 -30 -13
-97 -43 -149 -66 -309 -138 -855 -407 -1015 -500 -16 -9 -70 -39 -120 -65 -49
-27 -107 -59 -127 -72 -21 -12 -39 -23 -41 -23 -11 0 -553 -322 -660 -392 -23
-15 -49 -31 -57 -35 -104 -53 -728 -485 -1045 -723 -282 -211 -766 -599 -825
-660 -8 -8 -49 -44 -90 -79 -41 -35 -95 -82 -120 -105 -25 -22 -65 -59 -90
-80 -199 -174 -694 -656 -915 -891 -40 -43 -230 -247 -260 -279 -14 -16 -155
-175 -186 -211 -113 -130 -129 -148 -214 -250 -27 -33 -52 -62 -55 -65 -3 -3
-57 -68 -119 -145 -62 -77 -124 -153 -137 -170 -50 -61 -433 -574 -501 -670
-38 -55 -87 -125 -108 -155 -194 -276 -695 -1069 -695 -1100 0 -4 -7 -13 -15
-20 -9 -7 -13 -15 -10 -18 3 -3 -1 -12 -9 -21 -12 -14 -43 -68 -96 -166 -8
-16 -32 -59 -52 -95 -143 -256 -432 -832 -545 -1088 -14 -31 -34 -77 -45 -102
-90 -196 -306 -723 -366 -890 -11 -30 -47 -129 -80 -220 -205 -566 -395 -1210
-523 -1770 -6 -25 -12 -52 -14 -60 -14 -61 -56 -250 -60 -270 -3 -14 -14 -68
-25 -120 -11 -52 -23 -108 -26 -125 -2 -16 -16 -91 -30 -165 -14 -74 -28 -148
-30 -164 -2 -15 -5 -35 -8 -45 -3 -9 -8 -36 -11 -61 -7 -54 -12 -87 -25 -160
-15 -87 -18 -108 -35 -232 -9 -65 -18 -126 -20 -136 -1 -10 -6 -49 -10 -87 -3
-38 -8 -72 -10 -75 -2 -3 -6 -36 -9 -75 -3 -38 -8 -81 -10 -95 -2 -14 -7 -56
-11 -95 -4 -38 -8 -83 -10 -100 -5 -49 -17 -167 -20 -210 -5 -56 -15 -179 -20
-245 -4 -52 -13 -204 -20 -335 -25 -484 -25 -1244 0 -1694 11 -199 17 -290 20
-321 2 -19 6 -73 10 -120 3 -47 8 -103 9 -125 2 -22 7 -74 11 -115 3 -41 11
-115 16 -165 6 -49 12 -110 15 -135 5 -56 24 -206 29 -240 2 -14 6 -46 9 -72
11 -88 18 -143 22 -163 2 -11 7 -40 10 -65 7 -55 13 -98 34 -220 5 -30 12 -73
15 -95 3 -22 7 -47 10 -55 2 -8 6 -33 9 -55 4 -22 8 -51 11 -65 5 -27 9 -49
30 -160 25 -136 56 -294 70 -355 8 -33 32 -142 55 -242 22 -100 42 -188 45
-195 2 -7 7 -24 9 -38 18 -88 113 -442 171 -640 25 -85 48 -162 49 -170 9 -35
119 -378 171 -530 31 -91 57 -169 59 -175 2 -11 2 -12 125 -340 79 -212 223
-570 279 -696 301 -674 523 -1117 805 -1609 55 -96 109 -191 120 -210 10 -19
25 -42 32 -50 7 -8 14 -19 16 -25 5 -12 90 -154 129 -215 16 -25 37 -58 46
-74 20 -36 166 -261 247 -381 33 -49 83 -124 111 -165 104 -156 494 -693 515
-710 3 -3 33 -41 66 -84 33 -44 74 -96 90 -116 17 -21 44 -54 60 -75 34 -45
326 -397 335 -405 3 -3 34 -39 70 -80 36 -41 101 -115 145 -165 44 -49 85 -95
90 -101 180 -204 667 -699 909 -925 38 -35 84 -77 101 -94 41 -38 186 -169
245 -221 25 -21 50 -43 56 -49 61 -55 159 -139 340 -291 39 -33 171 -141 304
-247 180 -145 528 -404 750 -559 171 -119 479 -328 484 -328 2 0 43 -26 92
-57 50 -32 99 -63 109 -70 11 -6 87 -54 170 -105 82 -51 159 -98 170 -104 11
-6 58 -33 105 -61 499 -294 1178 -638 1700 -862 80 -35 159 -69 176 -77 79
-35 478 -192 663 -261 244 -90 732 -256 821 -279 8 -2 83 -24 165 -49 136 -41
416 -121 456 -130 8 -2 69 -17 135 -35 65 -17 129 -33 142 -36 13 -3 60 -14
105 -25 45 -11 92 -22 105 -25 12 -2 59 -13 105 -24 45 -10 93 -21 107 -24 14
-3 79 -16 145 -30 167 -36 403 -81 590 -112 50 -8 101 -17 115 -19 14 -2 43
-7 65 -10 22 -3 63 -10 90 -15 28 -5 70 -11 95 -15 25 -3 54 -7 65 -9 11 -2
45 -7 75 -11 30 -3 66 -8 80 -10 14 -3 50 -7 80 -10 30 -3 62 -7 70 -9 8 -3
47 -7 85 -11 39 -3 84 -8 100 -10 51 -7 119 -15 181 -20 32 -3 79 -7 104 -9
99 -11 168 -17 230 -21 36 -3 90 -7 120 -10 30 -2 107 -7 170 -10 63 -3 140
-8 170 -10 304 -24 1331 -24 1680 0 25 1 101 6 170 10 69 4 143 8 165 10 22 2
78 6 125 9 47 4 106 9 132 11 27 3 72 7 100 10 29 3 73 7 98 10 25 3 70 7 100
10 53 5 108 12 180 20 37 5 176 22 245 30 47 6 133 18 200 29 17 3 50 8 75 11
25 3 70 10 100 15 30 5 73 12 95 15 22 3 63 10 90 15 28 6 68 12 90 16 22 3
58 9 80 14 22 5 56 12 75 15 125 21 255 47 640 130 131 28 495 119 606 151 28
8 60 16 70 18 28 6 294 83 409 118 422 130 751 243 1133 389 653 251 1449 622
1974 919 38 22 71 40 73 40 1 0 69 39 151 86 82 47 165 95 184 106 307 177
804 500 1158 752 160 113 461 335 472 346 3 3 46 37 95 75 50 38 92 72 95 75
3 3 23 19 45 36 22 16 45 34 51 39 6 6 30 26 54 45 88 71 216 175 245 201 17
14 84 72 150 129 407 348 932 854 1305 1259 58 63 112 122 120 131 41 44 245
277 320 365 47 55 87 102 90 105 3 3 24 28 45 55 22 28 43 52 46 55 4 4 221
274 314 391 7 9 39 52 71 95 32 44 61 81 64 84 3 3 55 73 115 155 60 83 125
173 145 200 71 97 290 421 432 640 134 207 353 573 486 812 151 273 157 283
275 513 60 118 116 226 123 240 16 29 164 341 164 345 0 1 21 47 46 101 64
138 93 203 159 359 58 136 215 521 226 555 4 14 20 57 34 95 93 244 260 732
330 970 25 83 52 170 60 195 37 115 209 774 229 880 3 14 18 86 35 160 26 119
72 340 84 410 3 14 12 59 20 100 9 41 18 95 22 120 3 25 8 52 11 61 3 10 6 30
9 45 2 16 6 47 10 69 3 22 8 51 10 65 2 14 11 66 19 115 17 100 18 111 41 275
15 114 18 135 30 240 3 30 8 66 10 80 2 14 6 48 9 75 3 28 8 73 11 100 9 76
14 124 19 195 3 36 8 92 11 125 16 183 20 233 30 395 3 58 8 134 10 170 25
398 25 1227 0 1700 -4 91 -16 276 -20 330 -2 25 -7 83 -10 130 -3 47 -8 101
-10 120 -2 19 -7 64 -10 100 -9 102 -15 162 -20 200 -3 19 -7 58 -9 85 -5 52
-13 124 -22 185 -3 19 -7 53 -9 75 -8 71 -17 140 -21 160 -2 10 -6 37 -9 60
-4 22 -13 85 -21 140 -8 55 -17 114 -18 131 -2 16 -6 39 -9 50 -3 10 -8 37
-12 59 -3 22 -8 54 -11 70 -3 17 -7 41 -9 55 -4 35 -34 193 -61 330 -8 41 -17
86 -20 100 -2 14 -7 36 -10 50 -3 14 -8 36 -11 50 -2 14 -9 45 -14 70 -6 25
-13 56 -15 70 -8 43 -64 283 -75 324 -6 22 -13 49 -15 60 -2 12 -15 66 -30
120 -14 55 -27 107 -29 115 -5 25 -54 207 -87 321 -17 58 -31 110 -32 115 -2
6 -11 37 -21 70 -11 33 -19 62 -20 65 -6 31 -81 266 -157 495 -114 341 -338
933 -448 1180 -10 22 -32 74 -50 115 -126 294 -434 931 -566 1170 -19 36 -54
99 -76 140 -76 138 -91 165 -98 175 -4 6 -20 33 -35 60 -27 50 -82 145 -120
210 -11 18 -35 59 -54 92 -83 142 -297 479 -430 676 -36 54 -73 109 -81 122
-85 136 -485 680 -695 945 -91 115 -332 408 -345 420 -3 3 -30 34 -60 70 -30
36 -59 70 -65 76 -5 6 -32 37 -60 68 -27 32 -59 68 -70 80 -11 13 -54 60 -96
107 -180 198 -252 274 -444 469 -171 173 -393 390 -511 500 -205 189 -259 238
-404 364 -69 59 -136 118 -150 130 -20 17 -267 222 -330 273 -51 42 -241 191
-264 208 -16 11 -33 25 -40 31 -6 5 -65 50 -131 100 -66 49 -124 92 -130 97
-237 180 -836 584 -1148 773 -27 16 -61 36 -75 45 -172 105 -541 316 -717 409
-239 126 -272 144 -315 165 -56 28 -170 86 -190 96 -93 49 -547 258 -730 336
-58 24 -118 51 -135 58 -55 26 -409 166 -570 227 -445 167 -701 251 -1265 418
-118 35 -537 146 -581 154 -14 2 -53 11 -85 20 -118 31 -658 146 -804 171 -19
3 -96 17 -170 30 -74 13 -153 27 -175 30 -22 3 -80 12 -130 20 -49 8 -153 23
-230 34 -131 19 -162 23 -275 36 -25 3 -63 8 -85 11 -69 9 -108 13 -175 19
-36 3 -76 8 -90 10 -14 2 -61 7 -105 10 -44 3 -93 8 -110 10 -16 2 -70 7 -120
10 -49 3 -112 8 -140 10 -27 3 -93 7 -145 10 -52 3 -126 8 -165 10 -239 14
-1228 29 -1238 19z m-8567 -6648 c91 -4 181 -9 200 -11 19 -1 80 -6 135 -9 55
-4 111 -9 125 -11 14 -2 61 -7 105 -10 44 -3 94 -7 110 -9 17 -3 62 -7 100
-11 39 -4 77 -9 85 -10 8 -2 44 -6 80 -10 36 -3 76 -8 90 -10 24 -4 50 -7 150
-20 25 -3 70 -10 100 -15 30 -5 78 -11 105 -15 28 -3 73 -10 100 -15 28 -5 66
-11 85 -14 168 -25 618 -108 815 -151 61 -13 196 -42 300 -65 379 -82 1123
-272 1415 -362 36 -11 73 -21 83 -24 9 -2 25 -6 35 -8 9 -3 100 -30 202 -61
102 -31 190 -58 195 -59 120 -29 1154 -377 1510 -508 61 -23 144 -53 185 -68
41 -15 124 -46 184 -68 114 -43 134 -43 155 -3 21 39 -12 140 -158 494 -159
383 -236 598 -241 677 -5 72 -2 80 46 100 66 29 86 32 219 35 393 11 1095
-246 1749 -639 65 -39 126 -75 135 -81 9 -5 43 -28 75 -50 32 -22 65 -44 75
-50 24 -15 168 -123 204 -153 89 -75 216 -213 240 -262 32 -63 36 -109 10
-111 -48 -3 -173 35 -298 91 -11 5 -76 32 -145 61 -69 28 -147 62 -175 74
-112 51 -620 267 -760 323 -258 104 -608 227 -713 249 l-23 5 21 -53 c11 -30
25 -63 30 -74 5 -11 28 -76 50 -145 23 -69 44 -132 47 -140 4 -8 7 -19 9 -25
2 -5 10 -35 19 -65 37 -124 82 -316 91 -390 3 -19 7 -46 9 -60 7 -36 7 -220 0
-252 -15 -76 -50 -129 -100 -152 -33 -16 -105 -22 -150 -13 -11 3 -40 8 -65
12 -56 9 -78 13 -110 20 -14 3 -34 7 -45 9 -11 2 -103 25 -205 51 -102 26
-192 48 -200 50 -174 39 -1635 484 -1755 534 -52 22 -657 197 -745 216 -8 2
-53 13 -100 25 -47 12 -92 23 -100 25 -8 2 -60 14 -115 28 -185 47 -595 138
-815 181 -190 37 -288 55 -325 61 -23 3 -52 8 -65 10 -14 3 -65 12 -115 20
-49 8 -101 17 -115 19 -14 3 -43 7 -65 11 -22 3 -65 9 -95 15 -30 5 -75 11
-100 15 -70 9 -192 26 -220 30 -14 2 -50 7 -80 10 -30 3 -66 8 -80 10 -14 2
-50 7 -80 10 -30 3 -74 7 -97 10 -87 10 -130 14 -208 21 -44 3 -88 8 -98 10
-10 2 -66 6 -125 9 -59 4 -123 8 -142 10 -248 25 -1302 26 -1326 2 -2 -2 5
-57 17 -123 29 -171 28 -167 60 -301 15 -67 30 -132 33 -145 4 -21 26 -105 77
-298 70 -264 269 -891 368 -1160 250 -681 445 -1170 652 -1637 33 -74 58 -138
55 -141 -3 -2 -36 15 -73 39 -60 39 -297 264 -363 344 -178 216 -276 352 -413
573 -57 92 -111 181 -119 197 -8 17 -32 59 -53 95 -115 200 -306 607 -437 935
-142 354 -352 993 -443 1345 -2 8 -18 69 -35 135 -17 66 -35 136 -39 155 -5
19 -27 112 -49 205 -23 94 -52 221 -65 283 -24 112 -24 113 -4 124 56 29 254
68 433 84 38 3 80 8 94 10 14 2 90 7 170 10 80 3 146 7 147 8 5 4 522 -2 663
-8z m19030 0 c224 -13 308 -22 482 -52 97 -16 218 -51 218 -62 -1 -20 -80
-382 -112 -507 -11 -44 -22 -89 -25 -100 -7 -31 -9 -39 -16 -60 -3 -11 -8 -31
-11 -45 -4 -27 -83 -315 -122 -447 -62 -214 -76 -259 -127 -413 -95 -286 -227
-648 -272 -745 -7 -16 -46 -106 -86 -200 -102 -239 -279 -592 -409 -815 -245
-421 -550 -805 -795 -1001 -60 -49 -123 -89 -138 -89 -3 0 22 62 55 138 33 75
107 250 165 387 57 138 108 259 113 270 37 80 319 820 380 995 95 273 255 762
276 840 2 8 19 69 39 135 19 66 37 129 40 140 2 11 27 106 54 210 28 105 52
201 55 215 2 14 18 88 34 165 28 132 35 169 48 255 3 19 7 41 9 48 3 7 -5 12
-18 13 -12 0 -60 3 -107 6 -262 18 -1026 6 -1335 -21 -38 -3 -101 -8 -140 -11
-38 -3 -86 -8 -105 -10 -19 -2 -69 -7 -110 -11 -41 -3 -83 -8 -93 -10 -10 -2
-46 -6 -80 -9 -35 -3 -71 -7 -82 -9 -11 -2 -47 -7 -80 -10 -33 -4 -73 -9 -90
-11 -16 -3 -84 -12 -150 -20 -66 -9 -142 -20 -170 -25 -27 -5 -70 -12 -95 -15
-25 -4 -121 -20 -215 -36 -163 -28 -191 -33 -252 -44 -16 -3 -44 -8 -63 -11
-19 -3 -55 -10 -80 -16 -25 -5 -58 -12 -75 -15 -16 -3 -104 -20 -195 -39 -91
-20 -178 -37 -195 -40 -16 -3 -41 -10 -55 -14 -14 -5 -38 -11 -55 -14 -26 -4
-224 -49 -265 -60 -19 -5 -109 -26 -135 -32 -106 -21 -858 -232 -935 -261 -8
-4 -17 -7 -20 -7 -3 -1 -113 -37 -245 -80 -132 -42 -287 -92 -345 -110 -170
-54 -284 -89 -295 -92 -5 -1 -86 -25 -179 -54 -699 -211 -1251 -350 -1408
-352 -185 -2 -232 219 -137 647 37 167 135 478 203 644 31 76 31 82 9 78 -25
-5 -104 -28 -128 -37 -11 -4 -58 -20 -105 -35 -209 -66 -781 -293 -1040 -413
-25 -12 -157 -69 -295 -128 -291 -125 -482 -194 -518 -187 -22 4 -25 9 -21 40
6 47 33 98 89 163 134 158 393 349 773 571 90 52 473 249 485 249 3 0 40 16
84 36 116 53 115 52 273 113 169 64 425 138 544 157 21 3 48 8 60 11 45 10
265 13 317 3 30 -6 74 -20 99 -33 43 -21 45 -24 46 -67 1 -57 -46 -229 -93
-340 -3 -8 -7 -17 -8 -20 -2 -7 -7 -19 -117 -290 -55 -135 -106 -259 -113
-276 -28 -61 -75 -213 -75 -241 0 -16 9 -39 20 -51 24 -26 9 -30 340 93 417
154 1222 434 1295 449 6 2 89 28 185 59 163 52 596 184 630 192 8 2 94 26 190
53 181 53 230 66 490 134 137 35 368 94 410 103 8 2 62 15 120 29 139 33 240
57 268 62 13 3 76 16 140 30 64 14 126 27 137 30 282 57 567 112 670 128 45 8
81 13 185 31 99 17 121 20 180 29 272 39 270 39 375 52 22 2 56 7 75 9 19 2
58 7 86 10 28 4 68 8 90 10 21 2 59 6 84 9 25 2 77 8 115 11 39 4 88 9 110 11
22 2 81 6 130 10 50 3 106 7 125 9 19 2 112 6 205 10 94 4 171 8 172 9 6 5
542 -2 653 -8z m-16275 -1780 c419 -52 741 -227 946 -515 122 -173 188 -348
225 -606 5 -39 5 -293 0 -325 -3 -14 -7 -45 -10 -70 -7 -54 -14 -91 -27 -150
-6 -25 -12 -53 -14 -62 -10 -47 -88 -265 -124 -344 -69 -154 -202 -378 -284
-480 -145 -180 -271 -315 -397 -424 -41 -36 -77 -68 -80 -71 -11 -12 -179
-137 -230 -170 -128 -85 -182 -119 -186 -119 -2 0 -23 -12 -46 -26 -113 -72
-417 -212 -605 -278 -71 -26 -306 -99 -358 -112 -16 -4 -34 -8 -40 -10 -28 -8
-286 -64 -316 -69 -19 -3 -68 -12 -109 -20 -41 -8 -95 -17 -120 -20 -25 -3
-56 -8 -70 -10 -14 -2 -45 -7 -70 -10 -25 -3 -56 -8 -70 -10 -14 -2 -59 -7
-100 -11 -41 -3 -88 -8 -105 -10 -58 -6 -311 -17 -375 -16 -89 1 -199 10 -335
28 -22 2 -58 7 -80 10 -59 8 -94 13 -150 24 -27 5 -66 12 -85 15 -118 20 -411
106 -540 159 -303 126 -559 320 -693 527 -47 72 -100 184 -113 238 -2 9 -8 36
-15 61 -12 51 -15 204 -4 241 26 87 79 145 105 114 6 -7 24 -63 40 -123 54
-206 138 -327 308 -446 119 -82 363 -175 527 -200 22 -4 47 -8 55 -11 32 -9
255 -35 362 -42 203 -12 674 -6 821 12 15 2 67 6 115 10 48 3 101 8 117 10 17
2 55 7 85 10 55 5 88 9 165 19 22 3 63 8 90 11 28 4 75 10 105 15 30 5 73 12
95 15 428 62 840 228 1212 487 279 195 566 479 745 738 155 225 262 457 308
670 19 85 22 291 5 365 -43 199 -158 333 -341 395 -69 24 -225 56 -320 66
-159 17 -453 7 -603 -21 -9 -1 -36 -6 -61 -10 -51 -8 -50 -8 -145 -29 -38 -8
-97 -22 -130 -31 -33 -9 -67 -18 -75 -20 -54 -13 -318 -102 -385 -130 -259
-108 -351 -149 -496 -221 -94 -47 -173 -83 -176 -80 -9 9 37 84 92 152 199
243 487 481 790 651 184 103 461 205 653 239 12 2 34 6 50 9 15 3 59 7 97 11
39 3 71 7 73 8 4 5 246 -2 297 -8z m12803 0 c298 -36 616 -154 912 -340 62
-38 222 -152 265 -187 134 -111 189 -164 345 -328 57 -61 148 -197 137 -207
-2 -2 -96 41 -208 95 -219 107 -438 200 -590 251 -52 18 -103 36 -114 41 -11
4 -54 17 -95 29 -41 11 -97 27 -125 35 -49 14 -112 29 -170 39 -16 3 -41 8
-55 11 -81 18 -167 31 -285 42 -89 9 -365 9 -430 0 -27 -4 -68 -10 -90 -13
-22 -3 -47 -7 -55 -9 -8 -2 -29 -7 -46 -10 -151 -25 -293 -101 -363 -194 -85
-111 -121 -245 -116 -431 9 -383 245 -822 670 -1245 455 -454 1055 -752 1670
-830 91 -12 118 -15 144 -20 14 -2 53 -7 86 -11 33 -3 67 -8 75 -9 8 -2 44 -6
80 -9 36 -4 81 -9 100 -11 339 -41 995 -52 1191 -20 13 2 49 6 79 9 58 7 83
11 165 26 365 68 616 200 756 398 31 44 86 155 94 188 41 182 54 211 89 192
31 -17 44 -37 62 -98 25 -82 21 -205 -11 -313 -48 -167 -122 -286 -264 -427
-132 -131 -300 -240 -521 -338 -47 -20 -244 -90 -276 -97 -11 -2 -50 -13 -89
-23 -38 -11 -95 -25 -125 -31 -30 -6 -66 -14 -80 -17 -88 -18 -229 -40 -315
-49 -33 -3 -71 -8 -85 -10 -131 -21 -454 -21 -619 0 -18 2 -63 7 -100 10 -36
3 -77 7 -91 10 -14 3 -50 7 -80 10 -30 3 -62 7 -70 10 -8 2 -37 6 -65 10 -100
12 -423 77 -555 111 -396 104 -773 258 -1065 437 -410 251 -711 531 -957 892
-49 72 -69 107 -150 255 -32 60 -93 202 -124 292 -142 411 -141 815 2 1150 34
79 106 204 148 258 54 68 205 206 274 251 188 123 432 205 667 226 39 3 71 7
73 8 5 4 248 -3 300 -9z m-8440 -1621 c40 -3 82 -8 94 -10 12 -3 40 -7 63 -10
22 -4 58 -11 80 -17 22 -5 47 -12 55 -14 8 -2 40 -10 70 -18 126 -31 348 -131
487 -218 239 -149 441 -336 676 -628 25 -31 135 -187 171 -244 20 -32 39 -57
41 -55 1 2 6 92 10 199 9 266 12 298 28 366 8 33 23 99 33 148 l18 89 13 -54
c7 -30 15 -67 18 -84 3 -16 14 -66 25 -110 18 -76 22 -145 35 -545 1 -47 6
-84 9 -83 4 1 39 48 78 105 145 211 370 464 552 619 22 19 48 42 58 52 22 21
245 187 251 187 2 0 34 20 72 44 100 66 295 159 428 205 64 22 117 38 117 36
0 -3 11 0 24 5 13 5 43 12 67 15 24 4 46 8 49 10 4 2 38 7 76 10 38 4 79 8 91
10 45 7 30 -11 -40 -49 -162 -86 -311 -202 -479 -369 -105 -105 -272 -298
-328 -377 -13 -19 -27 -37 -30 -40 -11 -8 -201 -282 -245 -352 -81 -129 -203
-336 -245 -413 -23 -44 -46 -84 -50 -90 -10 -12 -190 -373 -219 -437 -12 -27
-58 -128 -102 -225 -90 -199 -85 -169 -75 -433 4 -91 9 -232 11 -315 3 -82 7
-199 10 -260 3 -60 7 -173 10 -250 3 -77 8 -187 10 -245 2 -58 7 -195 11 -305
3 -110 7 -201 9 -203 2 -2 22 32 46 75 115 210 336 544 437 664 11 13 45 55
76 93 214 263 496 529 786 742 61 44 256 172 305 200 11 6 49 28 85 49 283
163 638 306 1000 403 119 32 377 86 465 98 28 3 57 8 66 9 9 2 40 6 70 10 83
9 131 15 169 20 95 12 457 28 449 21 -3 -3 -49 -15 -103 -26 -54 -12 -108 -24
-120 -26 -11 -3 -30 -7 -41 -9 -11 -3 -51 -14 -90 -25 -38 -12 -80 -23 -91
-26 -34 -7 -248 -82 -353 -123 -488 -194 -975 -500 -1391 -876 -93 -84 -348
-340 -420 -421 -41 -47 -86 -97 -99 -112 -13 -15 -49 -58 -80 -97 -31 -38 -58
-72 -61 -75 -3 -3 -28 -34 -55 -70 -27 -36 -53 -69 -57 -75 -22 -27 -65 -85
-78 -105 -8 -12 -29 -41 -45 -64 -17 -22 -48 -68 -70 -101 -22 -33 -43 -62
-46 -65 -3 -3 -9 -12 -12 -20 -4 -8 -25 -42 -46 -75 -312 -476 -631 -1143
-776 -1620 -18 -60 -47 -148 -65 -195 -17 -47 -39 -105 -47 -130 -9 -25 -19
-48 -22 -52 -6 -7 -103 257 -142 382 -19 64 -91 248 -129 335 -13 28 -39 88
-60 135 -91 207 -270 555 -392 765 -39 66 -78 134 -88 150 -89 156 -347 540
-462 690 -232 300 -334 420 -538 630 -386 398 -771 692 -1190 907 -94 48 -144
71 -275 128 -97 42 -355 127 -440 145 -11 3 -47 11 -80 19 -33 9 -73 18 -90
20 -152 27 -235 41 -272 45 -7 0 -13 10 -13 21 0 19 5 19 93 15 177 -9 253
-15 402 -30 224 -24 588 -93 760 -145 17 -5 71 -21 120 -36 50 -14 99 -30 110
-34 11 -5 72 -27 135 -51 119 -43 148 -56 337 -145 238 -112 498 -277 736
-466 193 -154 516 -475 641 -636 11 -15 29 -36 39 -47 53 -57 289 -386 373
-518 27 -43 57 -91 66 -105 10 -15 21 -34 25 -42 28 -54 118 -198 122 -194 3
2 6 26 7 52 6 182 16 452 19 527 2 50 6 155 9 235 6 140 11 264 21 530 8 208
17 423 19 465 2 31 -13 74 -62 185 -85 194 -84 190 -132 310 -24 58 -61 143
-82 188 -21 46 -38 86 -38 88 0 6 -181 368 -220 439 -169 313 -393 649 -570
855 -87 102 -252 259 -344 328 -120 91 -193 133 -311 181 -53 21 -98 40 -100
43 -5 5 77 2 173 -7z m-6559 -2547 c-1 -24 1 -176 4 -338 l7 -295 -43 -32
c-206 -155 -604 -548 -813 -803 -16 -19 -37 -44 -47 -55 -89 -96 -404 -503
-576 -745 -74 -104 -271 -396 -271 -402 0 -2 77 34 170 79 325 159 634 283
960 386 239 76 828 255 934 284 11 3 -8 -26 -50 -77 -38 -45 -82 -99 -99 -120
-16 -21 -113 -138 -215 -261 -266 -321 -348 -429 -533 -701 -126 -186 -407
-636 -426 -683 -2 -5 -31 -57 -64 -115 -67 -117 -302 -579 -362 -710 -74 -164
-127 -286 -169 -390 -15 -36 -31 -74 -35 -85 -106 -252 -318 -894 -356 -1075
-2 -8 -11 -44 -20 -80 -20 -76 -15 -56 -54 -239 -17 -79 -33 -153 -36 -165 -5
-15 4 -10 31 19 294 320 449 446 829 675 121 73 243 148 272 166 28 19 54 34
58 34 3 0 23 11 43 25 37 25 58 32 48 16 -3 -5 -17 -49 -30 -97 -14 -49 -57
-201 -96 -339 -62 -216 -152 -558 -164 -620 -2 -11 -14 -60 -26 -110 -11 -49
-30 -130 -40 -180 -49 -225 -71 -332 -76 -360 -3 -16 -11 -61 -19 -100 -8 -38
-17 -88 -20 -110 -4 -22 -8 -48 -11 -58 -3 -10 -7 -30 -9 -45 -2 -15 -6 -43
-10 -62 -21 -116 -35 -201 -40 -240 -3 -25 -10 -70 -15 -100 -10 -58 -14 -85
-25 -163 -4 -27 -8 -57 -10 -67 -2 -9 -9 -61 -15 -115 -6 -54 -13 -106 -15
-116 -2 -10 -6 -44 -10 -76 -3 -32 -8 -76 -10 -98 -20 -176 -30 -286 -40 -435
-3 -41 -7 -97 -10 -125 -23 -271 -24 -1125 0 -1215 4 -18 18 -178 17 -202 0
-10 3 -18 8 -18 5 0 76 43 157 96 228 149 241 158 348 219 140 80 319 168 455
222 63 25 120 46 125 47 6 1 36 10 67 19 72 22 236 56 308 64 74 9 283 8 345
-1 115 -16 254 -42 310 -57 22 -6 51 -13 64 -15 52 -10 222 -69 313 -109 348
-155 625 -412 926 -861 78 -116 232 -375 232 -389 0 -11 -178 -556 -184 -562
-2 -2 -29 40 -62 94 -87 146 -221 343 -326 478 -104 135 -367 403 -473 483
-39 28 -76 57 -82 62 -35 29 -213 135 -284 170 -130 63 -306 124 -398 136 -25
3 -49 8 -53 10 -30 18 -345 25 -472 11 -302 -33 -617 -153 -957 -362 -125 -77
-268 -193 -446 -362 -163 -156 -216 -203 -220 -199 -3 2 -57 272 -108 536 -3
14 -10 52 -15 85 -5 33 -12 71 -14 85 -3 14 -7 48 -11 75 -3 28 -8 57 -10 65
-2 8 -6 46 -10 83 -3 37 -8 76 -10 85 -1 9 -6 58 -9 107 -4 50 -9 101 -11 115
-19 123 -27 942 -12 1200 7 121 10 152 23 310 3 41 7 99 9 127 2 29 6 74 9
100 3 27 8 73 11 103 3 30 7 71 10 90 2 19 7 60 10 90 6 60 14 120 20 160 2
14 7 49 10 79 4 30 9 63 11 75 2 12 6 41 9 66 3 25 12 88 21 140 8 52 17 109
20 125 4 32 10 70 19 120 3 17 15 82 26 145 11 63 24 135 29 160 5 25 12 59
15 75 2 17 7 43 11 59 l6 29 -28 -34 c-48 -57 -280 -364 -373 -494 -141 -197
-352 -495 -451 -638 -63 -91 -117 -164 -119 -162 -6 7 -4 288 4 465 7 168 8
195 20 335 11 129 13 149 20 216 14 140 23 207 30 249 3 14 7 48 10 75 7 61
31 222 50 330 8 44 17 96 20 115 4 27 44 228 80 400 26 126 123 499 172 660
61 204 185 578 217 655 7 17 28 68 45 115 18 47 39 99 47 117 8 17 14 34 14
38 0 3 11 30 24 58 13 29 42 95 64 147 74 173 242 521 325 670 164 298 308
536 443 733 41 59 74 110 74 113 0 15 -289 -38 -391 -71 -25 -9 -54 -17 -65
-20 -32 -6 -153 -51 -274 -100 -213 -86 -511 -240 -724 -375 -35 -22 -66 -40
-69 -40 -15 0 108 300 203 497 211 437 554 986 884 1413 27 36 72 94 100 130
28 36 62 79 76 96 14 17 32 40 40 50 68 87 358 429 415 489 11 11 54 59 95
105 167 186 726 758 743 759 4 1 6 -18 6 -41z m17646 -619 c39 -41 104 -113
145 -159 41 -46 80 -88 85 -94 10 -10 244 -284 287 -334 95 -114 311 -392 417
-538 72 -98 134 -183 139 -189 19 -24 264 -399 319 -490 143 -234 336 -602
403 -765 12 -30 29 -69 37 -87 21 -49 83 -223 79 -223 -2 0 -57 32 -122 71
-227 137 -412 233 -619 321 -162 69 -382 145 -475 164 -13 3 -60 13 -105 24
-44 10 -110 21 -147 25 l-67 7 112 -168 c331 -496 602 -1010 832 -1574 26 -63
51 -124 56 -135 10 -23 139 -375 143 -390 1 -5 19 -62 40 -125 145 -446 260
-907 345 -1385 22 -122 56 -341 66 -424 4 -30 8 -61 10 -70 2 -9 6 -47 9 -83
4 -37 8 -75 10 -85 2 -10 7 -54 10 -98 4 -44 9 -96 11 -115 5 -34 9 -101 21
-305 7 -135 12 -528 7 -538 -2 -4 -52 61 -110 145 -128 185 -445 631 -453 638
-3 3 -41 55 -85 115 -84 117 -210 284 -283 375 -42 52 -44 53 -38 23 4 -17 9
-44 11 -60 2 -15 8 -48 14 -73 5 -25 12 -58 15 -75 14 -85 37 -213 41 -235 3
-14 10 -54 16 -90 5 -36 12 -77 14 -92 5 -30 8 -47 24 -153 12 -78 17 -117 26
-190 4 -27 8 -61 11 -75 2 -14 7 -50 10 -80 3 -30 7 -65 9 -78 2 -13 7 -53 10
-90 4 -37 8 -77 10 -89 2 -12 6 -57 10 -100 4 -43 9 -94 11 -113 2 -19 6 -69
9 -110 3 -41 7 -104 10 -140 26 -366 27 -1188 1 -1380 -2 -14 -7 -64 -10 -112
-4 -48 -9 -98 -11 -110 -2 -13 -6 -50 -10 -83 -3 -33 -8 -71 -10 -85 -2 -14
-7 -43 -10 -65 -6 -43 -42 -254 -50 -295 -2 -14 -21 -106 -41 -205 -20 -99
-38 -196 -41 -215 -3 -19 -8 -42 -12 -53 -8 -22 3 -31 -209 170 -268 257 -451
388 -727 523 -216 105 -403 168 -610 205 -148 26 -428 27 -565 1 -478 -89
-885 -358 -1280 -848 -128 -158 -215 -285 -388 -567 -14 -24 -19 -13 -109 260
l-93 284 27 50 c15 28 42 73 60 102 18 29 33 55 33 58 0 3 5 11 10 18 6 7 43
62 82 122 64 99 202 292 217 305 3 3 24 28 46 55 56 70 239 254 307 308 274
218 609 348 1064 411 127 17 335 13 448 -10 12 -2 35 -7 51 -10 309 -55 674
-226 1164 -545 84 -55 156 -97 159 -94 3 3 7 13 7 23 19 186 22 224 31 402 12
244 6 771 -11 970 -2 25 -6 90 -10 145 -3 55 -8 114 -10 130 -2 17 -7 66 -10
110 -4 44 -8 94 -10 110 -2 17 -7 57 -10 90 -3 33 -8 71 -10 85 -2 14 -6 52
-10 85 -6 55 -14 121 -30 230 -3 22 -8 56 -11 75 -17 118 -56 371 -69 445 -3
17 -10 57 -16 90 -14 80 -45 241 -76 395 -14 69 -27 135 -29 148 -42 227 -170
737 -293 1167 -55 192 -99 351 -97 353 2 2 69 -36 148 -84 78 -48 211 -127
293 -177 208 -125 283 -175 415 -282 102 -83 273 -247 390 -375 29 -32 39 -39
35 -23 -6 24 -11 44 -19 94 -3 19 -17 84 -31 144 -15 61 -28 119 -30 129 -29
130 -114 423 -189 651 -172 518 -412 1072 -676 1560 -42 77 -79 147 -83 155
-4 8 -15 29 -25 45 -10 17 -30 50 -44 75 -36 63 -175 295 -213 355 -178 279
-240 370 -379 563 -84 116 -193 257 -231 298 -5 6 -57 69 -115 139 -58 71
-174 211 -257 312 -84 101 -149 183 -144 183 4 0 21 -4 37 -9 31 -10 97 -30
464 -141 578 -174 691 -212 995 -337 170 -70 233 -98 443 -199 72 -35 134 -64
137 -64 17 0 -406 599 -572 810 -84 106 -152 192 -177 221 -17 19 -51 60 -76
90 -53 63 -176 205 -234 268 -83 90 -413 417 -459 455 -26 22 -67 57 -90 78
-23 21 -65 55 -94 76 l-51 37 5 230 c4 232 10 436 12 445 1 6 556 -553 656
-661z m-14184 -36 c20 -26 58 -79 84 -118 76 -111 170 -234 275 -360 43 -52
372 -378 434 -430 32 -28 64 -55 70 -60 70 -64 357 -282 531 -402 144 -99 197
-133 395 -255 169 -104 172 -106 190 -114 8 -4 26 -15 40 -24 24 -16 72 -43
210 -118 36 -20 101 -55 145 -79 98 -54 557 -283 680 -340 50 -23 126 -58 170
-78 357 -165 553 -241 723 -280 56 -13 229 -68 253 -81 34 -17 37 -42 12 -82
-36 -54 -108 -108 -286 -216 -68 -41 -140 -84 -158 -95 -19 -12 -43 -25 -54
-31 -11 -5 -42 -23 -70 -39 -93 -56 -449 -228 -587 -285 -192 -79 -498 -183
-591 -200 -12 -3 -23 -5 -24 -7 -2 -1 -6 -2 -10 -3 -194 -44 -299 -62 -487
-82 -50 -5 -359 -5 -385 0 -13 3 -49 8 -80 12 -31 3 -108 19 -171 35 -63 16
-115 29 -115 29 -1 0 -2 -15 -3 -32 -3 -45 -40 -231 -58 -294 -8 -28 -16 -60
-19 -70 -2 -11 -19 -64 -38 -119 -138 -403 -374 -781 -689 -1099 -85 -87 -87
-90 -70 -110 30 -35 586 -589 655 -653 105 -98 115 -152 40 -224 -21 -19 -104
-79 -185 -133 -352 -234 -655 -520 -838 -791 -197 -293 -261 -598 -179 -855
86 -265 342 -541 751 -806 75 -49 160 -102 190 -119 29 -16 76 -43 103 -59
147 -84 574 -289 628 -301 19 -4 58 -14 120 -30 60 -17 359 -83 402 -89 22 -4
47 -8 55 -11 16 -4 29 -6 230 -36 142 -21 174 -25 255 -34 28 -2 68 -7 90 -9
250 -29 906 -28 1049 0 11 2 46 6 76 9 30 3 66 7 80 10 14 2 41 7 60 10 19 3
42 8 50 10 8 2 31 6 51 9 62 9 300 73 405 109 100 34 117 41 228 91 32 15 60
25 63 23 5 -6 -79 -85 -142 -134 -230 -179 -566 -352 -920 -471 -136 -45 -344
-102 -435 -117 -19 -3 -54 -10 -77 -15 -23 -6 -61 -12 -85 -15 -24 -3 -52 -7
-63 -9 -20 -4 -81 -12 -165 -21 -215 -24 -644 -24 -835 0 -22 3 -80 10 -130
16 -49 6 -99 13 -110 15 -11 2 -40 7 -65 10 -25 3 -53 8 -62 10 -10 3 -30 7
-45 10 -16 2 -46 8 -68 13 -75 18 -140 33 -155 36 -8 2 -44 11 -79 20 -74 19
-76 18 -85 -59 -13 -96 -119 -479 -144 -521 -4 -5 -7 -12 -7 -15 0 -11 -54
-132 -106 -241 -141 -289 -321 -519 -524 -671 -44 -33 -82 -62 -85 -65 -9 -9
201 10 367 33 18 2 48 6 65 8 18 3 80 12 138 21 58 9 121 18 140 21 19 2 46 6
60 9 14 3 42 8 64 11 21 3 48 8 60 10 50 12 159 11 203 0 53 -14 132 -52 148
-71 34 -40 475 -375 601 -455 13 -8 54 -36 91 -61 306 -209 776 -469 1053
-584 36 -15 79 -33 95 -40 118 -53 468 -167 575 -189 14 -3 68 -14 120 -25
215 -46 350 -56 755 -55 273 0 421 5 536 19 19 3 57 7 84 10 28 4 57 8 65 10
8 2 40 7 70 10 30 4 74 11 98 16 23 5 59 12 80 15 20 3 62 12 92 19 30 8 66
16 80 18 14 3 45 11 70 18 60 17 62 17 85 22 102 24 379 119 531 183 60 25
123 50 139 56 58 22 383 188 496 254 113 66 329 203 339 214 3 3 22 16 43 29
21 13 43 28 50 34 6 7 48 39 92 71 138 102 265 210 384 325 36 36 85 79 108
97 84 64 198 83 347 58 50 -8 105 -17 121 -20 17 -2 55 -9 85 -14 30 -5 80
-12 110 -15 30 -4 57 -8 60 -10 3 -1 30 -6 61 -9 31 -4 65 -8 75 -10 11 -2 48
-7 84 -11 36 -3 72 -8 80 -10 8 -2 60 -7 115 -10 l100 -6 -35 22 c-152 97
-355 319 -482 529 -154 255 -288 603 -349 909 -18 91 -25 110 -38 106 -21 -6
-180 -43 -211 -48 -14 -3 -63 -12 -110 -20 -132 -24 -178 -31 -275 -41 -33 -4
-80 -9 -105 -11 -217 -24 -609 -23 -815 1 -473 56 -848 161 -1233 344 -67 33
-124 58 -125 57 -1 -1 -16 8 -34 21 -17 12 -34 22 -38 22 -12 0 -198 123 -290
191 -86 64 -178 149 -161 149 4 0 33 -12 64 -26 189 -87 503 -183 677 -209 23
-3 50 -7 60 -9 18 -3 124 -19 211 -31 192 -27 894 -27 1031 -1 12 3 57 7 100
11 43 3 103 10 133 15 30 5 78 12 105 15 52 6 59 7 165 25 150 25 184 31 189
35 3 1 24 6 46 9 22 4 69 14 105 22 36 9 76 18 90 20 14 3 84 20 157 39 164
43 391 147 728 334 186 103 291 169 435 274 412 303 618 601 625 909 2 72 -2
110 -19 205 -31 168 -143 384 -305 588 -68 86 -259 280 -361 367 -93 79 -275
216 -349 263 -284 180 -309 232 -170 362 93 86 679 671 679 676 0 3 -35 41
-77 84 -301 304 -496 601 -663 1008 -68 165 -134 426 -156 612 -3 32 -7 59 -8
60 -1 2 -40 -12 -87 -31 -96 -37 -265 -81 -354 -92 -33 -3 -69 -8 -80 -10 -11
-2 -90 -4 -175 -3 -202 0 -185 0 -260 9 -36 5 -90 11 -120 15 -30 3 -62 8 -70
10 -8 2 -31 7 -50 10 -306 52 -736 201 -1128 392 -321 156 -680 378 -809 499
-20 19 -53 78 -53 96 0 28 37 45 155 73 61 15 115 28 120 29 6 2 28 6 50 10
136 27 342 104 635 239 36 16 92 42 125 57 293 135 810 395 875 440 14 10 27
17 30 16 9 -2 503 289 608 359 30 19 57 35 62 35 5 0 10 3 12 8 2 4 44 34 93
66 75 49 299 208 355 252 497 389 754 655 1053 1086 79 114 125 164 140 149 5
-5 10 -36 10 -68 0 -64 -13 -274 -18 -283 -1 -3 -6 -32 -10 -65 -3 -33 -10
-78 -15 -100 -5 -22 -11 -51 -14 -65 -32 -172 -144 -531 -196 -632 -5 -9 -8
-25 -6 -35 4 -21 16 -153 21 -248 5 -81 5 -384 0 -465 -10 -172 -17 -232 -46
-402 -27 -162 -93 -416 -129 -493 -5 -11 -21 -49 -36 -85 -38 -94 -80 -174
-137 -265 -74 -117 -109 -159 -222 -270 l-102 -100 40 -65 c116 -188 392 -579
441 -625 6 -5 29 -32 51 -60 121 -152 314 -364 496 -545 158 -157 257 -250
428 -400 89 -78 130 -137 126 -183 -5 -76 -31 -107 -369 -447 l-334 -335 142
-140 c253 -250 425 -475 561 -739 88 -170 162 -377 182 -511 2 -16 6 -36 9
-44 15 -44 20 -226 11 -356 -8 -104 -10 -117 -42 -245 -125 -494 -529 -955
-1186 -1353 -226 -137 -621 -335 -746 -375 -55 -18 -67 -38 -38 -62 8 -7 15
-17 15 -22 0 -9 153 -238 180 -271 6 -7 24 -30 41 -52 196 -255 458 -496 685
-631 214 -127 421 -201 649 -230 28 -3 53 -8 58 -11 26 -16 -28 -140 -103
-236 -199 -252 -512 -458 -836 -551 -50 -15 -101 -29 -113 -31 -13 -2 -30 -6
-39 -9 -9 -3 -37 -8 -62 -12 -25 -3 -56 -8 -70 -10 -50 -8 -336 -11 -400 -4
l-65 6 -46 -43 c-147 -139 -419 -330 -749 -528 -60 -37 -367 -198 -400 -211
-16 -6 -62 -27 -170 -76 -36 -17 -128 -55 -205 -85 -77 -30 -149 -58 -160 -63
-73 -33 -563 -180 -650 -196 -16 -3 -66 -13 -110 -24 -82 -19 -210 -45 -279
-56 -21 -3 -48 -8 -60 -10 -27 -5 -222 -31 -306 -39 -175 -19 -367 -28 -575
-28 -244 0 -642 10 -652 16 -4 3 -39 8 -78 11 -38 3 -81 8 -95 11 -13 3 -42 7
-65 10 -34 5 -194 36 -260 51 -11 2 -29 6 -40 9 -243 54 -658 199 -972 339
-207 92 -596 295 -732 380 -22 14 -43 26 -45 26 -5 0 -180 107 -276 168 -30
19 -159 104 -285 189 l-230 153 -75 -6 c-101 -9 -310 -8 -390 1 -36 4 -77 9
-91 10 -15 2 -35 5 -45 9 -11 3 -32 8 -49 11 -73 12 -145 32 -235 65 -305 112
-591 315 -762 542 -65 87 -113 198 -91 211 4 3 31 8 58 11 28 4 61 8 75 11 14
3 39 7 55 10 228 39 538 195 765 384 128 107 314 295 391 396 13 17 26 32 29
35 3 3 18 23 35 45 16 22 32 42 36 45 6 5 141 207 197 295 l31 49 -67 30
c-254 114 -616 309 -807 435 -67 43 -288 204 -311 226 -6 5 -35 30 -65 55 -29
25 -97 88 -150 140 -373 367 -563 779 -559 1210 1 113 3 134 15 216 38 257
143 518 312 779 130 199 251 345 454 546 l127 126 -324 324 c-462 461 -460
456 -216 671 453 400 848 830 1150 1254 39 54 76 104 82 111 5 7 10 14 10 16
0 3 29 49 65 102 36 54 65 101 65 104 0 3 -30 26 -65 50 -85 57 -191 156 -257
239 -29 37 -55 69 -58 72 -15 12 -119 192 -153 263 -67 140 -151 378 -171 487
-2 14 -11 59 -19 100 -17 81 -24 123 -32 185 -3 22 -7 54 -10 70 -27 181 -27
786 0 927 3 17 -4 50 -19 85 -93 225 -184 555 -211 768 -4 28 -8 61 -11 75 -3
20 -16 190 -16 210 0 3 0 33 1 68 l1 63 28 -15 c15 -8 43 -36 63 -63z m-1700
-1400 c66 -201 329 -864 439 -1108 10 -22 42 -94 70 -160 29 -65 72 -161 96
-213 24 -52 44 -96 44 -98 0 -2 49 -104 109 -227 103 -211 200 -393 269 -502
27 -44 29 -51 15 -59 -14 -8 -237 -1 -252 8 -3 2 -31 7 -61 11 -80 10 -87 11
-180 28 -47 9 -98 18 -115 21 -55 9 -139 25 -195 36 -30 6 -68 14 -84 17 -16
2 -59 11 -95 19 -36 8 -109 24 -161 35 -52 11 -104 22 -115 25 -11 2 -30 6
-42 8 -11 2 -83 19 -160 36 -76 18 -145 33 -153 35 -63 14 -152 36 -166 42
-12 5 -15 2 -11 -13 302 -1085 765 -1865 1512 -2549 53 -49 322 -275 362 -305
18 -13 30 -26 28 -30 -4 -7 -172 -4 -205 3 -8 2 -37 7 -64 12 -103 17 -193 59
-391 185 -38 24 -140 95 -145 101 -3 3 -23 18 -45 35 -62 46 -113 87 -225 182
-112 95 -335 325 -430 442 -19 24 -40 48 -46 54 -19 20 -193 258 -229 315 -6
9 -31 48 -57 86 -25 39 -56 88 -68 110 -77 135 -97 172 -151 280 -168 332
-340 810 -414 1145 -31 145 -55 262 -60 295 -3 22 -8 47 -10 55 -2 8 -7 39
-10 69 -4 30 -8 61 -10 70 -1 9 -6 48 -10 86 -4 39 -9 78 -11 88 -4 23 20 19
146 -24 150 -50 502 -147 595 -163 17 -3 40 -8 53 -11 12 -3 32 -7 45 -10 80
-18 378 -67 487 -80 25 -3 67 -8 94 -11 l49 -6 -26 46 c-41 73 -90 239 -103
346 -3 30 -8 57 -10 60 -10 18 -19 228 -19 440 0 215 7 375 20 475 2 17 7 53
10 80 11 89 15 119 27 170 10 48 25 85 33 85 2 0 13 -30 26 -67z m13432 9 c3
-20 8 -47 11 -58 6 -30 13 -79 21 -149 4 -33 9 -71 11 -85 18 -112 26 -628 11
-790 -19 -214 -59 -384 -118 -503 l-29 -58 57 6 c32 3 69 8 83 10 14 2 45 7
70 10 25 3 88 13 140 21 52 8 111 17 130 20 19 3 43 7 52 10 10 3 30 7 45 10
16 2 39 7 53 10 14 3 36 8 50 10 40 7 350 84 400 99 25 8 118 37 208 65 89 28
166 49 171 46 5 -3 7 -16 5 -28 -1 -13 -5 -45 -9 -73 -10 -90 -16 -130 -20
-145 -2 -8 -6 -37 -10 -65 -16 -130 -103 -512 -156 -685 -121 -394 -278 -758
-466 -1078 -72 -124 -214 -345 -233 -362 -3 -3 -34 -43 -69 -90 -148 -195
-378 -441 -550 -590 -167 -144 -435 -337 -581 -418 -49 -27 -158 -69 -200 -77
-82 -15 -278 -26 -285 -16 -2 4 33 36 78 71 45 36 96 76 112 91 233 202 300
265 440 409 132 137 177 188 292 330 433 538 730 1122 943 1854 44 154 43 149
32 142 -5 -3 -24 -8 -43 -11 -19 -3 -61 -13 -94 -22 -33 -8 -71 -17 -85 -19
-14 -3 -63 -14 -110 -25 -47 -11 -96 -23 -110 -25 -14 -3 -119 -26 -235 -51
-115 -24 -221 -47 -235 -49 -14 -3 -86 -16 -160 -31 -74 -14 -144 -27 -155
-29 -11 -2 -31 -5 -45 -8 -14 -3 -43 -7 -65 -10 -22 -4 -51 -8 -65 -11 -114
-21 -196 -30 -297 -30 -50 0 -94 3 -98 6 -3 4 7 26 24 50 52 77 150 259 251
464 93 190 180 373 180 380 0 2 20 46 45 99 25 53 45 99 45 101 0 3 13 33 29
67 36 80 144 335 231 548 37 91 70 174 75 185 5 11 9 22 9 25 1 3 25 64 52
135 28 72 71 185 94 253 45 129 61 143 73 64z m-8339 -3944 c-10 -13 -21 -25
-24 -28 -16 -16 -170 -236 -170 -243 0 -3 -16 -30 -35 -62 -63 -106 -139 -305
-162 -425 -63 -340 40 -643 312 -916 194 -195 433 -347 770 -492 178 -77 494
-177 665 -211 30 -6 66 -14 80 -16 126 -26 219 -23 375 11 38 8 81 17 95 20
57 11 302 85 405 122 193 70 411 170 542 248 17 10 53 32 80 48 158 96 400
310 470 418 15 23 34 49 40 56 15 15 103 191 107 212 1 8 10 39 19 69 71 230
24 532 -129 820 -47 88 -166 272 -190 292 -8 6 -14 17 -14 24 0 8 -3 15 -7 17
-5 2 -19 16 -33 33 l-25 29 30 -19 c63 -39 242 -220 344 -347 410 -512 512
-1021 290 -1451 -27 -54 -108 -176 -144 -217 -164 -191 -377 -353 -735 -562
-389 -226 -826 -401 -1105 -444 -65 -10 -76 -12 -80 -16 -3 -3 -11 -194 -20
-463 -6 -192 -14 -339 -20 -390 -13 -108 -17 -135 -31 -204 -21 -99 -48 -170
-79 -203 -60 -65 -100 -17 -143 168 -25 106 -28 127 -47 297 -7 63 -14 184
-20 347 -3 80 -8 204 -12 275 -3 72 -6 142 -6 156 -1 24 -5 27 -46 33 -65 9
-262 60 -361 94 -239 82 -566 237 -800 380 -19 12 -51 30 -71 41 -38 21 -321
210 -329 220 -3 3 -27 24 -55 46 -84 66 -208 195 -274 285 -87 117 -174 305
-196 420 -29 155 -25 310 10 465 11 50 45 159 56 177 5 10 9 22 9 28 0 23 114
238 176 332 117 177 248 329 414 481 72 65 112 90 74 45z m-5923 -515 c0 -38
2 -77 5 -88 2 -11 6 -43 9 -71 2 -28 17 -111 31 -185 37 -190 40 -207 64 -300
12 -46 24 -92 25 -102 2 -10 9 -32 15 -50 5 -18 24 -81 41 -142 57 -206 260
-821 312 -945 6 -14 11 -27 12 -30 2 -10 46 -125 54 -145 5 -11 42 -103 81
-205 75 -194 288 -709 341 -826 17 -38 38 -85 46 -104 9 -19 18 -38 20 -42 6
-12 -43 9 -122 50 -79 42 -229 180 -348 321 -39 47 -75 88 -78 91 -13 11 -148
199 -194 270 -112 172 -345 614 -345 653 0 7 -4 17 -9 23 -12 13 -114 281
-157 412 -41 127 -83 264 -89 289 -2 10 -18 72 -35 138 -26 103 -38 155 -65
280 -12 53 -25 124 -31 160 -33 219 -39 265 -34 279 9 26 139 153 213 208 61
46 209 128 229 128 5 0 8 -30 9 -67z m15121 33 c108 -54 187 -112 285 -210
l91 -91 -8 -55 c-5 -30 -11 -74 -14 -98 -8 -61 -37 -225 -41 -232 -2 -3 -6
-21 -9 -40 -6 -39 -9 -54 -26 -125 -6 -27 -13 -57 -15 -65 -33 -147 -126 -477
-140 -500 -3 -6 -8 -19 -10 -29 -16 -83 -169 -460 -271 -668 -187 -379 -389
-668 -654 -934 -122 -123 -145 -141 -228 -183 -50 -25 -94 -46 -96 -46 -3 0 8
30 25 68 43 95 228 535 283 672 51 126 58 143 74 180 6 14 23 57 37 95 14 39
29 79 34 90 13 28 85 218 87 230 1 6 21 60 44 120 76 199 255 748 295 905 3 8
18 67 35 130 17 63 33 122 35 130 2 8 11 47 20 85 9 39 24 115 35 170 38 208
48 278 49 378 1 31 4 57 9 57 4 0 37 -15 74 -34z"/>
<path d="M16325 22228 c2 -29 7 -89 10 -133 3 -44 8 -100 11 -125 2 -25 7 -65
10 -90 10 -94 32 -244 48 -325 30 -155 100 -355 153 -441 105 -169 254 -286
433 -337 146 -42 239 -52 495 -52 246 0 367 10 574 45 173 30 333 68 460 109
l114 37 -137 48 c-405 140 -969 434 -1386 721 -190 131 -260 181 -365 259 -66
49 -143 108 -171 130 -28 23 -68 55 -89 71 -21 17 -43 35 -50 40 -6 6 -34 29
-63 53 l-52 43 5 -53z"/>
<path d="M24865 22234 c-22 -19 -63 -53 -91 -74 -28 -21 -57 -45 -65 -52 -8
-8 -63 -51 -124 -97 -60 -45 -117 -88 -126 -95 -84 -68 -554 -384 -654 -440
-16 -9 -43 -25 -60 -35 -302 -183 -657 -354 -958 -462 -78 -27 -151 -54 -161
-58 -14 -5 20 -19 120 -49 350 -105 636 -147 1014 -147 196 0 280 6 381 26 30
5 65 12 79 15 53 10 160 56 221 96 138 89 245 226 314 401 36 92 86 294 105
422 7 44 14 88 15 97 4 17 7 54 30 283 11 123 15 205 7 205 -4 -1 -25 -17 -47
-36z"/>
</g>
</svg>
